<?xml version="1.0" standalone="no"?>
<!DOCTYPE svg PUBLIC "-//W3C//DTD SVG 20010904//EN"
 "http://www.w3.org/TR/2001/REC-SVG-20010904/DTD/svg10.dtd">
<svg version="1.0" xmlns="http://www.w3.org/2000/svg"
 width="421.000000pt" height="421.000000pt" viewBox="0 0 421.000000 421.000000"
 preserveAspectRatio="xMidYMid meet">
<metadata>
Created by potrace 1.11, written by Peter Selinger 2001-2013
</metadata>
<g transform="translate(0.000000,421.000000) scale(0.100000,-0.100000)"
fill="#000000" stroke="none">
<path d="M65 3787 c3 -37 10 -79 15 -91 6 -16 5 -28 -3 -36 -9 -10 -9 -11 0
-6 8 4 16 -8 23 -36 20 -76 103 -268 153 -353 27 -45 119 -187 127 -195 3 -3
25 -32 50 -65 129 -172 362 -419 543 -572 38 -32 97 -69 227 -141 25 -13 52
-30 60 -36 18 -13 53 -34 97 -57 18 -9 30 -18 28 -21 -2 -2 -6 -108 -8 -236
l-3 -232 55 -48 c30 -26 62 -54 71 -62 9 -8 67 -60 130 -115 63 -55 127 -111
141 -125 15 -14 39 -36 55 -50 130 -112 311 -271 419 -370 49 -45 78 -62 48
-28 -13 13 -23 30 -23 36 0 7 -3 12 -8 12 -4 0 -18 18 -32 40 -14 22 -28 40
-32 40 -5 0 -8 7 -8 15 0 8 -4 15 -8 15 -4 0 -16 15 -27 33 -10 17 -21 34 -25
37 -3 3 -22 28 -42 55 -26 36 -47 88 -77 187 -22 75 -41 143 -41 150 0 19 64
80 75 71 4 -5 5 -2 1 4 -8 14 72 106 85 97 5 -3 6 1 3 9 -3 8 -2 17 3 20 13 8
55 -12 48 -23 -3 -5 0 -7 8 -4 8 3 21 -2 30 -10 9 -9 23 -16 31 -16 9 0 16 -4
16 -10 0 -5 7 -10 15 -10 8 0 15 -5 15 -11 0 -5 4 -8 9 -4 6 3 13 -1 18 -9 4
-8 10 -14 13 -14 17 3 49 -15 44 -24 -4 -7 -2 -8 5 -4 13 9 44 -19 46 -43 1
-9 6 -25 10 -36 32 -89 51 -132 62 -143 7 -8 11 -18 7 -23 -3 -5 0 -8 8 -7 7
2 12 -3 11 -9 -2 -7 4 -13 12 -13 9 0 18 -7 22 -15 11 -31 167 -125 206 -125
10 0 16 -3 14 -7 -3 -5 5 -8 16 -9 54 -3 177 -27 177 -35 0 -5 3 -8 8 -8 19 3
43 -2 39 -8 -3 -5 7 -9 21 -10 14 0 34 -12 45 -25 10 -12 16 -17 12 -11 -3 7
-3 13 0 13 10 0 69 -43 73 -52 2 -5 8 -6 13 -3 8 6 67 -30 81 -50 4 -5 8 -7 8
-3 0 7 59 -29 87 -52 7 -5 15 -10 18 -10 9 0 79 -53 83 -62 2 -5 9 -8 15 -8
10 0 95 -59 142 -98 6 -4 48 -36 95 -71 47 -35 84 -70 83 -78 -1 -10 2 -12 9
-5 12 12 50 -17 41 -31 -3 -6 -1 -7 5 -3 7 4 12 2 12 -4 0 -6 4 -9 9 -6 10 7
43 -28 36 -37 -3 -4 -2 -5 1 -2 11 7 45 -15 39 -26 -4 -5 -3 -9 2 -8 15 4 43
-13 37 -22 -3 -5 -2 -8 3 -7 15 5 63 -34 56 -46 -3 -6 -3 -8 2 -4 4 4 14 3 22
-3 23 -20 14 3 -9 23 -13 11 -63 56 -112 101 -49 45 -102 94 -117 108 -16 14
-25 30 -21 34 4 5 2 5 -4 2 -14 -8 -47 26 -37 38 5 4 3 5 -3 2 -14 -8 -176
147 -166 158 4 5 2 5 -4 2 -13 -7 -47 26 -37 36 3 4 0 7 -8 7 -19 0 -82 64
-73 73 4 4 1 7 -7 7 -8 0 -40 27 -72 60 -55 58 -70 79 -45 64 7 -4 8 -3 4 4
-4 6 -13 9 -21 5 -8 -3 -15 0 -15 6 0 5 -18 28 -40 50 -22 22 -40 47 -40 56 0
9 -4 14 -9 10 -5 -3 -20 9 -32 27 -13 18 -29 39 -37 47 -7 7 -11 20 -8 27 3 8
0 13 -6 11 -16 -3 -69 94 -64 116 2 9 1 15 -4 12 -7 -4 -19 13 -16 25 2 8 -39
62 -78 103 -20 21 -33 43 -30 49 4 7 2 8 -4 4 -7 -4 -27 4 -44 17 -61 46 -155
84 -216 89 -18 1 -32 5 -32 9 0 4 -13 5 -28 3 -38 -6 -61 18 -41 44 13 15 12
16 -2 4 -15 -11 -20 -8 -39 23 -12 19 -27 35 -32 35 -6 0 -9 3 -5 6 3 3 -7 20
-23 38 -17 17 -30 36 -30 42 0 7 -7 14 -15 18 -8 3 -20 17 -27 31 -10 23 -8
29 22 60 18 19 36 32 40 30 4 -3 7 3 6 13 0 10 6 16 16 16 10 -1 15 2 12 7 -3
5 1 15 9 23 7 8 26 28 40 46 17 20 33 30 42 26 9 -3 37 -8 63 -11 26 -4 63
-10 82 -15 19 -5 60 -12 90 -15 30 -4 67 -16 82 -26 14 -11 29 -19 33 -19 3 0
50 -25 102 -55 53 -30 100 -55 105 -55 5 0 6 -6 2 -12 -4 -7 -4 -10 1 -6 8 8
83 -28 98 -47 6 -6 7 -6 5 2 -2 6 -30 35 -63 64 -33 28 -91 80 -130 114 -63
57 -142 126 -350 310 -38 34 -95 83 -125 110 -30 26 -71 62 -90 79 -19 18 -64
58 -99 89 -69 62 -64 61 -191 41 -19 -3 -57 -7 -85 -10 -27 -2 -74 -9 -104
-14 -30 -5 -58 -7 -62 -4 -4 2 -10 0 -14 -6 -4 -7 -12 -7 -25 0 -13 7 -21 7
-25 0 -14 -22 -42 -7 -75 41 -19 27 -34 54 -32 60 1 6 -2 8 -7 5 -16 -11 -23
14 -9 32 11 15 11 16 -3 5 -14 -11 -25 -1 -82 75 -36 48 -76 99 -89 112 -45
47 -146 134 -238 205 -35 28 -71 55 -80 62 -46 36 -152 113 -156 113 -2 0 -26
15 -52 33 -143 101 -387 224 -555 282 -60 20 -118 38 -130 41 -12 2 -33 6 -47
9 -78 18 -155 27 -233 29 l-69 2 7 -69z"/>
<path d="M2576 2148 c3 -4 11 -5 19 -1 21 7 19 12 -4 10 -11 0 -18 -5 -15 -9z"/>
<path d="M2530 2109 c0 -5 5 -7 10 -4 6 3 10 8 10 11 0 2 -4 4 -10 4 -5 0 -10
-5 -10 -11z"/>
<path d="M2574 2112 c4 -3 14 -7 22 -8 9 -1 13 0 10 4 -4 3 -14 7 -22 8 -9 1
-13 0 -10 -4z"/>
<path d="M2630 2089 c0 -5 5 -7 10 -4 6 3 10 8 10 11 0 2 -4 4 -10 4 -5 0 -10
-5 -10 -11z"/>
<path d="M2635 2050 c-3 -5 -1 -10 4 -10 6 0 11 5 11 10 0 6 -2 10 -4 10 -3 0
-8 -4 -11 -10z"/>
<path d="M2575 2029 c-3 -4 2 -6 10 -5 21 3 28 13 10 13 -9 0 -18 -4 -20 -8z"/>
<path d="M2530 1989 c0 -5 5 -7 10 -4 6 3 10 8 10 11 0 2 -4 4 -10 4 -5 0 -10
-5 -10 -11z"/>
<path d="M2635 1950 c-3 -5 -1 -10 4 -10 6 0 11 5 11 10 0 6 -2 10 -4 10 -3 0
-8 -4 -11 -10z"/>
<path d="M2687 1929 c7 -7 15 -10 18 -7 3 3 -2 9 -12 12 -14 6 -15 5 -6 -5z"/>
<path d="M2575 1910 c3 -5 8 -10 11 -10 2 0 4 5 4 10 0 6 -5 10 -11 10 -5 0
-7 -4 -4 -10z"/>
<path d="M2619 1918 c-5 -18 -6 -38 -1 -34 7 8 12 36 6 36 -2 0 -4 -1 -5 -2z"/>
<path d="M2695 1830 c-3 -5 -1 -10 4 -10 6 0 11 5 11 10 0 6 -2 10 -4 10 -3 0
-8 -4 -11 -10z"/>
<path d="M2639 1803 c-13 -16 -12 -17 4 -4 9 7 17 15 17 17 0 8 -8 3 -21 -13z"/>
<path d="M3275 1811 c-3 -5 -2 -12 3 -15 5 -3 9 1 9 9 0 17 -3 19 -12 6z"/>
<path d="M2766 1768 c3 -5 10 -6 15 -3 13 9 11 12 -6 12 -8 0 -12 -4 -9 -9z"/>
<path d="M2235 1619 c-4 -6 -5 -12 -2 -15 2 -3 7 2 10 11 7 17 1 20 -8 4z"/>
<path d="M3635 1621 c-3 -5 -2 -12 3 -15 5 -3 9 1 9 9 0 17 -3 19 -12 6z"/>
<path d="M2185 1610 c-3 -6 1 -7 9 -4 18 7 21 14 7 14 -6 0 -13 -4 -16 -10z"/>
<path d="M2130 1589 c0 -5 5 -7 10 -4 6 3 10 8 10 11 0 2 -4 4 -10 4 -5 0 -10
-5 -10 -11z"/>
<path d="M2080 1565 c-7 -8 -17 -12 -23 -8 -6 4 -7 1 -3 -6 6 -9 13 -8 27 5
10 9 19 19 19 21 0 7 -8 2 -20 -12z"/>
<path d="M2177 1565 c-4 -8 -3 -16 1 -19 4 -3 9 4 9 15 2 23 -3 25 -10 4z"/>
<path d="M2389 1568 c7 -9 9 -23 5 -30 -6 -10 -4 -11 7 0 11 10 10 15 -6 30
-17 15 -18 15 -6 0z"/>
<path d="M2134 1546 c1 -8 5 -18 8 -22 4 -3 5 1 4 10 -1 8 -5 18 -8 22 -4 3
-5 -1 -4 -10z"/>
<path d="M2195 1509 c-3 -4 2 -6 10 -5 21 3 28 13 10 13 -9 0 -18 -4 -20 -8z"/>
<path d="M2436 1452 c-3 -5 1 -9 9 -9 8 0 12 4 9 9 -3 4 -7 8 -9 8 -2 0 -6 -4
-9 -8z"/>
<path d="M2275 1439 c-4 -6 -5 -12 -2 -15 2 -3 7 2 10 11 7 17 1 20 -8 4z"/>
<path d="M2425 1370 c-3 -6 1 -7 9 -4 18 7 21 14 7 14 -6 0 -13 -4 -16 -10z"/>
<path d="M3913 1295 c0 -8 4 -12 9 -9 5 3 6 10 3 15 -9 13 -12 11 -12 -6z"/>
<path d="M2624 1132 c4 -3 14 -7 22 -8 9 -1 13 0 10 4 -4 3 -14 7 -22 8 -9 1
-13 0 -10 -4z"/>
<path d="M2910 1091 c0 -6 4 -13 10 -16 6 -3 7 1 4 9 -7 18 -14 21 -14 7z"/>
<path d="M3093 1035 c0 -8 4 -12 9 -9 5 3 6 10 3 15 -9 13 -12 11 -12 -6z"/>
<path d="M3030 1012 c0 -5 7 -9 15 -9 8 0 12 4 9 9 -3 4 -9 8 -15 8 -5 0 -9
-4 -9 -8z"/>
<path d="M3174 986 c1 -8 5 -18 8 -22 4 -3 5 1 4 10 -1 8 -5 18 -8 22 -4 3 -5
-1 -4 -10z"/>
<path d="M3585 970 c-3 -6 1 -7 9 -4 18 7 21 14 7 14 -6 0 -13 -4 -16 -10z"/>
<path d="M3830 729 c0 -5 5 -7 10 -4 6 3 10 8 10 11 0 2 -4 4 -10 4 -5 0 -10
-5 -10 -11z"/>
<path d="M2636 657 c3 -10 9 -15 12 -12 3 3 0 11 -7 18 -10 9 -11 8 -5 -6z"/>
<path d="M3746 612 c-3 -5 1 -9 9 -9 8 0 12 4 9 9 -3 4 -7 8 -9 8 -2 0 -6 -4
-9 -8z"/>
<path d="M2946 572 c-3 -5 1 -9 9 -9 8 0 12 4 9 9 -3 4 -7 8 -9 8 -2 0 -6 -4
-9 -8z"/>
<path d="M3999 403 c-13 -16 -12 -17 4 -4 16 13 21 21 13 21 -2 0 -10 -8 -17
-17z"/>
<path d="M4112 360 c7 -10 14 -18 15 -16 6 6 -9 36 -18 36 -5 0 -4 -9 3 -20z"/>
</g>
</svg>
